<svg width="152" height="35" viewBox="0 0 152 35" fill="none" xmlns="http://www.w3.org/2000/svg">
<path d="M26.8 31.435C26.35 31.765 25.645 32.17 24.685 32.65C23.725 33.13 22.585 33.55 21.265 33.91C19.945 34.24 18.505 34.39 16.945 34.36C14.365 34.33 12.055 33.88 10.015 33.01C8.005 32.11 6.28 30.91 4.84 29.41C3.43 27.88 2.35 26.14 1.6 24.19C0.85 22.21 0.475 20.095 0.475 17.845C0.475 15.385 0.865 13.12 1.645 11.05C2.455 8.98 3.565 7.18 4.975 5.65C6.415 4.12 8.125 2.935 10.105 2.095C12.085 1.255 14.245 0.834998 16.585 0.834998C18.655 0.834998 20.515 1.12 22.165 1.69C23.815 2.26 25.195 2.89 26.305 3.58L24.19 8.575C23.35 7.975 22.3 7.39 21.04 6.82C19.78 6.25 18.355 5.965 16.765 5.965C14.845 5.965 13.06 6.49 11.41 7.54C9.79 8.56 8.485 9.94 7.495 11.68C6.505 13.42 6.01 15.385 6.01 17.575C6.01 19.825 6.46 21.835 7.36 23.605C8.26 25.345 9.535 26.725 11.185 27.745C12.865 28.735 14.815 29.23 17.035 29.23C18.745 29.23 20.23 28.975 21.49 28.465C22.78 27.925 23.8 27.325 24.55 26.665L26.8 31.435ZM31.7641 17.62C31.7641 15.37 32.1991 13.24 33.0691 11.23C33.9391 9.19 35.1391 7.405 36.6691 5.875C38.1991 4.315 39.9691 3.085 41.9791 2.185C44.0191 1.285 46.1791 0.834998 48.4591 0.834998C50.7691 0.834998 52.9291 1.285 54.9391 2.185C56.9791 3.085 58.7791 4.315 60.3391 5.875C61.8991 7.405 63.1141 9.19 63.9841 11.23C64.8541 13.24 65.2891 15.37 65.2891 17.62C65.2891 19.96 64.8541 22.135 63.9841 24.145C63.1141 26.155 61.8991 27.94 60.3391 29.5C58.7791 31.03 56.9791 32.23 54.9391 33.1C52.9291 33.94 50.7691 34.36 48.4591 34.36C46.1791 34.36 44.0191 33.94 41.9791 33.1C39.9691 32.23 38.1991 31.045 36.6691 29.545C35.1391 28.015 33.9391 26.23 33.0691 24.19C32.1991 22.15 31.7641 19.96 31.7641 17.62ZM37.2541 17.665C37.2541 19.795 37.7491 21.745 38.7391 23.515C39.7591 25.255 41.1241 26.65 42.8341 27.7C44.5741 28.72 46.5091 29.23 48.6391 29.23C50.7391 29.23 52.6291 28.72 54.3091 27.7C55.9891 26.65 57.3241 25.255 58.3141 23.515C59.3041 21.745 59.7991 19.78 59.7991 17.62C59.7991 15.46 59.2891 13.495 58.2691 11.725C57.2791 9.955 55.9291 8.56 54.2191 7.54C52.5091 6.49 50.6041 5.965 48.5041 5.965C46.4041 5.965 44.4991 6.49 42.7891 7.54C41.0791 8.59 39.7291 10 38.7391 11.77C37.7491 13.54 37.2541 15.505 37.2541 17.665ZM72.2852 1.195H92.2202V6.325H77.5952V15.46H90.3302V20.545H77.5952V34H72.2852V1.195ZM99.0039 1.195H118.939V6.325H104.314V15.46H117.049V20.545H104.314V34H99.0039V1.195ZM134.318 23.38L122.213 1.195H128.783L137.963 18.835L136.343 18.925L145.388 1.195H151.913L139.673 23.38V34H134.318V23.38Z" fill="#3B2E2A"/>
</svg>
